<svg xmlns="http://www.w3.org/2000/svg">
    <symbol id="icon_arrow_down" viewBox="0 0 16 9">
        <path fill="none" d="M346 608L353.304 614 360 608" transform="translate(-345 -607)" />
    </symbol>
    <symbol id="icon_avatar" viewBox="0 0 16 16">
        <path d="M8 8c2.21 0 4-1.79 4-4s-1.79-4-4-4-4 1.79-4 4 1.79 4 4 4zm0 2c-2.67 0-8 1.34-8 4v2h16v-2c0-2.66-5.33-4-8-4z" />
    </symbol>
    <symbol id="icon_delete" viewBox="0 0 14 14">
        <circle cx="7" cy="7" r="7" fill="#536578" />
        <path fill="#142536" d="M11.343 3.59L10.474 2.722 7.032 6.164 3.59 2.722 2.722 3.59 6.164 7.032 2.722 10.474 3.59 11.343 7.032 7.901 10.474 11.343 11.343 10.474 7.901 7.032z" />
    </symbol>
</svg>
